<?xml version="1.0" encoding="UTF-8" standalone="no"?>
<!-- Created with Inkscape (http://www.inkscape.org/) -->

<svg
   xmlns:dc="http://purl.org/dc/elements/1.1/"
   xmlns:cc="http://creativecommons.org/ns#"
   xmlns:rdf="http://www.w3.org/1999/02/22-rdf-syntax-ns#"
   xmlns:svg="http://www.w3.org/2000/svg"
   xmlns="http://www.w3.org/2000/svg"
   xmlns:xlink="http://www.w3.org/1999/xlink"
   xmlns:sodipodi="http://sodipodi.sourceforge.net/DTD/sodipodi-0.dtd"
   xmlns:inkscape="http://www.inkscape.org/namespaces/inkscape"
   width="744.09448819"
   height="1052.3622047"
   id="svg2"
   version="1.1"
   inkscape:version="0.47 r22583"
   sodipodi:docname="New document 1">
  <defs
     id="defs4">
    <inkscape:perspective
       sodipodi:type="inkscape:persp3d"
       inkscape:vp_x="0 : 526.18109 : 1"
       inkscape:vp_y="0 : 1000 : 0"
       inkscape:vp_z="744.09448 : 526.18109 : 1"
       inkscape:persp3d-origin="372.04724 : 350.78739 : 1"
       id="perspective10" />
    <inkscape:perspective
       id="perspective2824"
       inkscape:persp3d-origin="0.5 : 0.33333333 : 1"
       inkscape:vp_z="1 : 0.5 : 1"
       inkscape:vp_y="0 : 1000 : 0"
       inkscape:vp_x="0 : 0.5 : 1"
       sodipodi:type="inkscape:persp3d" />
    <inkscape:perspective
       id="perspective2842"
       inkscape:persp3d-origin="0.5 : 0.33333333 : 1"
       inkscape:vp_z="1 : 0.5 : 1"
       inkscape:vp_y="0 : 1000 : 0"
       inkscape:vp_x="0 : 0.5 : 1"
       sodipodi:type="inkscape:persp3d" />
    <inkscape:perspective
       id="perspective3647"
       inkscape:persp3d-origin="0.5 : 0.33333333 : 1"
       inkscape:vp_z="1 : 0.5 : 1"
       inkscape:vp_y="0 : 1000 : 0"
       inkscape:vp_x="0 : 0.5 : 1"
       sodipodi:type="inkscape:persp3d" />
    <inkscape:perspective
       id="perspective3689"
       inkscape:persp3d-origin="0.5 : 0.33333333 : 1"
       inkscape:vp_z="1 : 0.5 : 1"
       inkscape:vp_y="0 : 1000 : 0"
       inkscape:vp_x="0 : 0.5 : 1"
       sodipodi:type="inkscape:persp3d" />
    <inkscape:perspective
       id="perspective3711"
       inkscape:persp3d-origin="0.5 : 0.33333333 : 1"
       inkscape:vp_z="1 : 0.5 : 1"
       inkscape:vp_y="0 : 1000 : 0"
       inkscape:vp_x="0 : 0.5 : 1"
       sodipodi:type="inkscape:persp3d" />
    <inkscape:perspective
       id="perspective3711-5"
       inkscape:persp3d-origin="0.5 : 0.33333333 : 1"
       inkscape:vp_z="1 : 0.5 : 1"
       inkscape:vp_y="0 : 1000 : 0"
       inkscape:vp_x="0 : 0.5 : 1"
       sodipodi:type="inkscape:persp3d" />
    <inkscape:perspective
       id="perspective3711-1"
       inkscape:persp3d-origin="0.5 : 0.33333333 : 1"
       inkscape:vp_z="1 : 0.5 : 1"
       inkscape:vp_y="0 : 1000 : 0"
       inkscape:vp_x="0 : 0.5 : 1"
       sodipodi:type="inkscape:persp3d" />
    <inkscape:perspective
       id="perspective3771"
       inkscape:persp3d-origin="0.5 : 0.33333333 : 1"
       inkscape:vp_z="1 : 0.5 : 1"
       inkscape:vp_y="0 : 1000 : 0"
       inkscape:vp_x="0 : 0.5 : 1"
       sodipodi:type="inkscape:persp3d" />
    <filter
       inkscape:collect="always"
       id="filter3779">
      <feGaussianBlur
         inkscape:collect="always"
         stdDeviation="6.7726779"
         id="feGaussianBlur3781" />
    </filter>
    <inkscape:perspective
       id="perspective3797"
       inkscape:persp3d-origin="0.5 : 0.33333333 : 1"
       inkscape:vp_z="1 : 0.5 : 1"
       inkscape:vp_y="0 : 1000 : 0"
       inkscape:vp_x="0 : 0.5 : 1"
       sodipodi:type="inkscape:persp3d" />
    <inkscape:perspective
       id="perspective3819"
       inkscape:persp3d-origin="0.5 : 0.33333333 : 1"
       inkscape:vp_z="1 : 0.5 : 1"
       inkscape:vp_y="0 : 1000 : 0"
       inkscape:vp_x="0 : 0.5 : 1"
       sodipodi:type="inkscape:persp3d" />
    <inkscape:perspective
       id="perspective3853"
       inkscape:persp3d-origin="0.5 : 0.33333333 : 1"
       inkscape:vp_z="1 : 0.5 : 1"
       inkscape:vp_y="0 : 1000 : 0"
       inkscape:vp_x="0 : 0.5 : 1"
       sodipodi:type="inkscape:persp3d" />
  </defs>
  <sodipodi:namedview
     id="base"
     pagecolor="#ffffff"
     bordercolor="#666666"
     borderopacity="1.0"
     inkscape:pageopacity="0.0"
     inkscape:pageshadow="2"
     inkscape:zoom="0.35"
     inkscape:cx="1281.1713"
     inkscape:cy="411.4088"
     inkscape:document-units="px"
     inkscape:current-layer="layer1"
     showgrid="false"
     inkscape:window-width="1357"
     inkscape:window-height="757"
     inkscape:window-x="25"
     inkscape:window-y="25"
     inkscape:window-maximized="0" />
  <metadata
     id="metadata7">
    <rdf:RDF>
      <cc:Work
         rdf:about="">
        <dc:format>image/svg+xml</dc:format>
        <dc:type
           rdf:resource="http://purl.org/dc/dcmitype/StillImage" />
        <dc:title></dc:title>
      </cc:Work>
    </rdf:RDF>
  </metadata>
  <g
     inkscape:label="Layer 1"
     inkscape:groupmode="layer"
     id="layer1">
    <image
       y="290.2478"
       x="1082.452"
       id="image3773"
       height="223.54372"
       width="242.9823"
       xlink:href="file:///C:/Users/lho/Dropbox/LJ-website/chho/hoc.jpg" />
    <rect
       style="fill:none;stroke:#ffffff;stroke-width:28.16677284;stroke-linecap:round;stroke-linejoin:round;stroke-miterlimit:4;stroke-opacity:1;stroke-dasharray:none;stroke-dashoffset:8.52479905;filter:url(#filter3779)"
       id="rect3777"
       width="291.54318"
       height="331.54318"
       x="835.65698"
       y="139.44774"
       transform="matrix(0.81484569,0,0,0.74250303,403.41572,180.02163)" />
    <path
       style="fill:#008080;fill-opacity:0.26063831"
       d="m 1582.6532,499.85666 0,-12 -11.5,0 c -7,0 -11.5,-0.3913 -11.5,-1 0,-0.6087 4.5,-1 11.5,-1 l 11.5,0 0,-24.5 0,-24.5 -11.5,0 c -7,0 -11.5,-0.3913 -11.5,-1 0,-0.6087 4.5,-1 11.5,-1 l 11.5,0 0,-24 0,-24 -11.75,-0.21503 -11.75,-0.21503 11.75,-0.31671 11.75,-0.3167 0,-23.96827 0,-23.96826 -11.5,0 c -7,0 -11.5,-0.3913 -11.5,-1 0,-0.6087 4.5,-1 11.5,-1 l 11.5,0 0,-12 c 0,-7.33333 0.3889,-12 1,-12 0.6111,0 1,4.66667 1,12 l 0,12 24,0 24,0 0.2162,-12.25 0.2162,-12.25 0.3146,12.25 0.3145,12.25 23.9692,0 23.9693,0 0,-12 c 0,-7.33333 0.3889,-12 1,-12 0.6111,0 1,4.66667 1,12 l 0,12 24.5,0 24.5,0 0,-12 c 0,-7.33333 0.3889,-12 1,-12 0.6111,0 1,4.66667 1,12 l 0,12 23.9692,0 23.9692,0 0.3146,-12.25 0.3145,-12.25 0.2162,12.25 0.2163,12.25 12,0 c 7.3333,0 12,0.38889 12,1 0,0.61119 -4.6727,1 -12.0181,1 l -12.0181,0 0.2681,23.75 0.2681,23.75 12,0.5319 12,0.53191 -12,0.46809 -12,0.4681 -0.2681,23.75 -0.2681,23.75 12.0181,0 c 7.3454,0 12.0181,0.38881 12.0181,1 0,0.61111 -4.6667,1 -12,1 l -12,0 0,24.5 0,24.5 12,0 c 7.3333,0 12,0.38889 12,1 0,0.61097 -4.6564,1 -11.9693,1 l -11.9692,0 -0.3145,12.25 -0.3146,12.25 -0.2162,-12.25 -0.2162,-12.25 -24,0 -24,0 0,12 c 0,7.33333 -0.3889,12 -1,12 -0.6111,0 -1,-4.66667 -1,-12 l 0,-12 -24.5,0 -24.5,0 0,12 c 0,7.33333 -0.3889,12 -1,12 -0.6111,0 -1,-4.66667 -1,-12 l 0,-12 -24,0 -24,0 -0.2163,12.25 -0.2162,12.25 -0.3145,-12.25 -0.3146,-12.25 -23.9692,0 -23.9692,0 0,12 c 0,7.33333 -0.3889,12 -1,12 -0.6111,0 -1,-4.66667 -1,-12 z m 50,-38.5 0,-24.5 -24,0 -24,0 0,24.5 0,24.5 24,0 24,0 0,-24.5 z m 49,0 0,-24.5 -24,0 -24,0 0,24.5 0,24.5 24,0 24,0 0,-24.5 z m 51,0 0,-24.5 -24.5,0 -24.5,0 0,24.5 0,24.5 24.5,0 24.5,0 0,-24.5 z m 50,0 0,-24.5 -24,0 -24,0 0,24.5 0,24.5 24,0 24,0 0,-24.5 z m -150.2319,-50.25 -0.2681,-23.75 -23.5,0 -23.5,0 -0.2681,23.75 -0.2681,23.75 24.0362,0 24.0362,0 -0.2681,-23.75 z m 49.2319,-0.2681 0,-24.0181 -23.75,0.2681 -23.75,0.2681 -0.2681,23.75 -0.2681,23.75 24.0181,0 24.0181,0 0,-24.0181 z m 50.7681,0.2681 -0.2681,-23.75 -24.25,-0.26778 -24.25,-0.26778 0,24.01778 0,24.01778 24.5181,0 24.5181,0 -0.2681,-23.75 z m 50,0 -0.2681,-23.75 -23.75,-0.2681 -23.75,-0.2681 0,24.0181 0,24.0181 24.0181,0 24.0181,0 -0.2681,-23.75 z m -150,-49.5 0.2681,-23.75 -24.0181,0 -24.0181,0 0,24.0181 0,24.0181 23.75,-0.2681 23.75,-0.2681 0.2681,-23.75 z m 49.2319,0.25 0,-24 -24,0 -24,0 0,23.33333 c 0,12.83334 0.3,23.63334 0.6666,24 0.3667,0.36667 11.1667,0.66667 24,0.66667 l 23.3334,0 0,-24 z m 51,0 0,-24 -24.5,0 -24.5,0 0,24 0,24 24.5,0 24.5,0 0,-24 z m 49.7681,-0.25 0.2681,-23.75 -24.0181,0 -24.0181,0 0,24.0181 0,24.0181 23.75,-0.2681 23.75,-0.2681 0.2681,-23.75 z"
       id="path2832" />
    <path
       style="fill:#008080;fill-opacity:0.26063831"
       d="m 1338.3675,499.85666 0,-12 -11.5,0 c -7,0 -11.5,-0.3913 -11.5,-1 0,-0.6087 4.5,-1 11.5,-1 l 11.5,0 0,-24.5 0,-24.5 -11.5,0 c -7,0 -11.5,-0.3913 -11.5,-1 0,-0.6087 4.5,-1 11.5,-1 l 11.5,0 0,-24 0,-24 -11.75,-0.21503 -11.75,-0.21503 11.75,-0.31671 11.75,-0.3167 0,-23.96827 0,-23.96826 -11.5,0 c -7,0 -11.5,-0.3913 -11.5,-1 0,-0.6087 4.5,-1 11.5,-1 l 11.5,0 0,-12 c 0,-7.33333 0.3888,-12 1,-12 0.6111,0 1,4.66667 1,12 l 0,12 24,0 24,0 0.2162,-12.25 0.2162,-12.25 0.3146,12.25 0.3145,12.25 23.9692,0 23.9693,0 0,-12 c 0,-7.33333 0.3888,-12 1,-12 0.6111,0 1,4.66667 1,12 l 0,12 24.5,0 24.5,0 0,-12 c 0,-7.33333 0.3888,-12 1,-12 0.6111,0 1,4.66667 1,12 l 0,12 23.9692,0 23.9692,0 0.3146,-12.25 0.3145,-12.25 0.2162,12.25 0.2163,12.25 12,0 c 7.3333,0 12,0.38889 12,1 0,0.61111 -4.6667,1 -12,1 l -12,0 0,24 0,24 12.25,0.20114 12.25,0.20113 -12,0.54887 -12,0.54886 -0.2681,23.75 -0.2681,23.75 12.0181,0 c 7.3454,0 12.0181,0.38881 12.0181,1 0,0.61111 -4.6667,1 -12,1 l -12,0 0,24.5 0,24.5 12,0 c 7.3333,0 12,0.38889 12,1 0,0.61111 -4.6667,1 -12,1 l -12,0 -0.2163,12.25 -0.2162,12.25 -0.3145,-12.25 -0.3146,-12.25 -23.9692,0 -23.9692,0 0,12 c 0,7.33333 -0.3889,12 -1,12 -0.6112,0 -1,-4.66667 -1,-12 l 0,-12 -24.5,0 -24.5,0 0,12 c 0,7.33333 -0.3889,12 -1,12 -0.6112,0 -1,-4.66667 -1,-12 l 0,-12 -24,0 -24,0 -0.2163,12.25 -0.2162,12.25 -0.3145,-12.25 -0.3146,-12.25 -23.9692,0 -23.9692,0 0,12 c 0,7.33333 -0.3889,12 -1,12 -0.6112,0 -1,-4.66667 -1,-12 z m 50,-38.5 0,-24.5 -24,0 -24,0 0,24.5 0,24.5 24,0 24,0 0,-24.5 z m 49,0 0,-24.5 -24,0 -24,0 0,24.5 0,24.5 24,0 24,0 0,-24.5 z m 51,0 0,-24.5 -24.5,0 -24.5,0 0,24.5 0,24.5 24.5,0 24.5,0 0,-24.5 z m 50,0 0,-24.5 -24,0 -24,0 0,24.5 0,24.5 24,0 24,0 0,-24.5 z m -150.2319,-50.25 -0.2681,-23.75 -23.75,-0.2681 -23.75,-0.2681 0,24.0181 0,24.0181 24.0181,0 24.0181,0 -0.2681,-23.75 z m 49.2319,-0.2681 0,-24.0181 -23.75,0.2681 -23.75,0.2681 -0.2681,23.75 -0.2681,23.75 24.0181,0 24.0181,0 0,-24.0181 z m 51,0.0181 0,-24 -24.5,0 -24.5,0 0,24 0,24 24.5,0 24.5,0 0,-24 z m 49.7681,0.25 -0.2681,-23.75 -23.75,-0.2681 -23.75,-0.2681 0,24.0181 0,24.0181 24.0181,0 24.0181,0 -0.2681,-23.75 z m -149.7681,-49.25 0,-24 -24,0 -24,0 0,24 0,24 24,0 24,0 0,-24 z m 49,0 0,-24 -24,0 -24,0 0,24 0,24 24,0 24,0 0,-24 z m 51,0 0,-24 -24.5,0 -24.5,0 0,24 0,24 24.5,0 24.5,0 0,-24 z m 50,0 0,-24 -24,0 -24,0 0,24 0,24 24,0 24,0 0,-24 z"
       id="path2830" />
    <path
       style="fill:#008080;fill-opacity:0.26063831"
       d="m 1606.2246,474.85667 0,-12 -11.5,0 c -7,0 -11.5,-0.3913 -11.5,-1 0,-0.6087 4.5,-1 11.5,-1 l 11.5,0 0,-24.5 0,-24.5 -11.5,0 c -7,0 -11.5,-0.3913 -11.5,-1 0,-0.6087 4.5,-1 11.5,-1 l 11.5,0 0,-24 0,-24 -11.75,-0.21503 -11.75,-0.21503 11.75,-0.31671 11.75,-0.3167 0,-23.96827 0,-23.96826 -11.5,0 c -7,0 -11.5,-0.3913 -11.5,-1 0,-0.6087 4.5,-1 11.5,-1 l 11.5,0 0,-12 c 0,-7.33333 0.3889,-12 1,-12 0.6111,0 1,4.66667 1,12 l 0,12 24,0 24,0 0.2162,-12.25 0.2162,-12.25 0.3146,12.25 0.3146,12.25 23.9692,0 23.9692,0 0,-12 c 0,-7.33333 0.3889,-12 1,-12 0.6111,0 1,4.66667 1,12 l 0,12 24.5,0 24.5,0 0,-12 c 0,-7.33333 0.3889,-12 1,-12 0.6111,0 1,4.66667 1,12 l 0,12 23.9692,0 23.9692,0 0.3146,-12.25 0.3146,-12.25 0.2162,12.25 0.2162,12.25 12,0 c 7.3333,0 12,0.38889 12,1 0,0.61119 -4.6727,1 -12.0181,1 l -12.0181,0 0.2681,23.75 0.2681,23.75 12,0.5319 12,0.53191 -12,0.46809 -12,0.4681 -0.2681,23.75 -0.2681,23.75 12.0181,0 c 7.3454,0 12.0181,0.38881 12.0181,1 0,0.61111 -4.6667,1 -12,1 l -12,0 0,24.5 0,24.5 12,0 c 7.3333,0 12,0.38889 12,1 0,0.61097 -4.6564,1 -11.9692,1 l -11.9692,0 -0.3146,12.25 -0.3146,12.25 -0.2162,-12.25 -0.2162,-12.25 -24,0 -24,0 0,12 c 0,7.33333 -0.3889,12 -1,12 -0.6111,0 -1,-4.66667 -1,-12 l 0,-12 -24.5,0 -24.5,0 0,12 c 0,7.33333 -0.3889,12 -1,12 -0.6111,0 -1,-4.66667 -1,-12 l 0,-12 -24,0 -24,0 -0.2162,12.25 -0.2162,12.25 -0.3146,-12.25 -0.3146,-12.25 -23.9692,0 -23.9692,0 0,12 c 0,7.33333 -0.3889,12 -1,12 -0.6111,0 -1,-4.66667 -1,-12 z m 50,-38.5 0,-24.5 -24,0 -24,0 0,24.5 0,24.5 24,0 24,0 0,-24.5 z m 49,0 0,-24.5 -24,0 -24,0 0,24.5 0,24.5 24,0 24,0 0,-24.5 z m 51,0 0,-24.5 -24.5,0 -24.5,0 0,24.5 0,24.5 24.5,0 24.5,0 0,-24.5 z m 50,0 0,-24.5 -24,0 -24,0 0,24.5 0,24.5 24,0 24,0 0,-24.5 z m -150.2319,-50.25 -0.2681,-23.75 -23.5,0 -23.5,0 -0.2681,23.75 -0.2681,23.75 24.0362,0 24.0362,0 -0.2681,-23.75 z m 49.2319,-0.2681 0,-24.0181 -23.75,0.2681 -23.75,0.2681 -0.2681,23.75 -0.2681,23.75 24.0181,0 24.0181,0 0,-24.0181 z m 50.7681,0.2681 -0.2681,-23.75 -24.25,-0.26778 -24.25,-0.26778 0,24.01778 0,24.01778 24.5181,0 24.5181,0 -0.2681,-23.75 z m 50,0 -0.2681,-23.75 -23.75,-0.2681 -23.75,-0.2681 0,24.0181 0,24.0181 24.0181,0 24.0181,0 -0.2681,-23.75 z m -150,-49.5 0.2681,-23.75 -24.0181,0 -24.0181,0 0,24.0181 0,24.0181 23.75,-0.2681 23.75,-0.2681 0.2681,-23.75 z m 49.2319,0.25 0,-24 -24,0 -24,0 0,23.33333 c 0,12.83334 0.3,23.63334 0.6667,24 0.3666,0.36667 11.1666,0.66667 24,0.66667 l 23.3333,0 0,-24 z m 51,0 0,-24 -24.5,0 -24.5,0 0,24 0,24 24.5,0 24.5,0 0,-24 z m 49.7681,-0.25 0.2681,-23.75 -24.0181,0 -24.0181,0 0,24.0181 0,24.0181 23.75,-0.2681 23.75,-0.2681 0.2681,-23.75 z"
       id="path2832-1" />
    <path
       style="fill:#008080;fill-opacity:0.26063831"
       d="m 1361.9389,474.85667 0,-12 -11.5,0 c -7,0 -11.5,-0.3913 -11.5,-1 0,-0.6087 4.5,-1 11.5,-1 l 11.5,0 0,-24.5 0,-24.5 -11.5,0 c -7,0 -11.5,-0.3913 -11.5,-1 0,-0.6087 4.5,-1 11.5,-1 l 11.5,0 0,-24 0,-24 -11.75,-0.21503 -11.75,-0.21503 11.75,-0.31671 11.75,-0.3167 0,-23.96827 0,-23.96826 -11.5,0 c -7,0 -11.5,-0.3913 -11.5,-1 0,-0.6087 4.5,-1 11.5,-1 l 11.5,0 0,-12 c 0,-7.33333 0.3889,-12 1,-12 0.6111,0 1,4.66667 1,12 l 0,12 24,0 24,0 0.2162,-12.25 0.2162,-12.25 0.3146,12.25 0.3145,12.25 23.9693,0 23.9692,0 0,-12 c 0,-7.33333 0.3889,-12 1,-12 0.6111,0 1,4.66667 1,12 l 0,12 24.5,0 24.5,0 0,-12 c 0,-7.33333 0.3889,-12 1,-12 0.6111,0 1,4.66667 1,12 l 0,12 23.9692,0 23.9692,0 0.3146,-12.25 0.3145,-12.25 0.2163,12.25 0.2162,12.25 12,0 c 7.3333,0 12,0.38889 12,1 0,0.61111 -4.6667,1 -12,1 l -12,0 0,24 0,24 12.25,0.20114 12.25,0.20113 -12,0.54887 -12,0.54886 -0.2681,23.75 -0.2681,23.75 12.0181,0 c 7.3454,0 12.0181,0.38881 12.0181,1 0,0.61111 -4.6667,1 -12,1 l -12,0 0,24.5 0,24.5 12,0 c 7.3333,0 12,0.38889 12,1 0,0.61111 -4.6667,1 -12,1 l -12,0 -0.2162,12.25 -0.2163,12.25 -0.3145,-12.25 -0.3146,-12.25 -23.9692,0 -23.9692,0 0,12 c 0,7.33333 -0.3889,12 -1,12 -0.6111,0 -1,-4.66667 -1,-12 l 0,-12 -24.5,0 -24.5,0 0,12 c 0,7.33333 -0.3889,12 -1,12 -0.6111,0 -1,-4.66667 -1,-12 l 0,-12 -24,0 -24,0 -0.2162,12.25 -0.2163,12.25 -0.3145,-12.25 -0.3146,-12.25 -23.9692,0 -23.9692,0 0,12 c 0,7.33333 -0.3889,12 -1,12 -0.6111,0 -1,-4.66667 -1,-12 z m 50,-38.5 0,-24.5 -24,0 -24,0 0,24.5 0,24.5 24,0 24,0 0,-24.5 z m 49,0 0,-24.5 -24,0 -24,0 0,24.5 0,24.5 24,0 24,0 0,-24.5 z m 51,0 0,-24.5 -24.5,0 -24.5,0 0,24.5 0,24.5 24.5,0 24.5,0 0,-24.5 z m 50,0 0,-24.5 -24,0 -24,0 0,24.5 0,24.5 24,0 24,0 0,-24.5 z m -150.2319,-50.25 -0.2681,-23.75 -23.75,-0.2681 -23.75,-0.2681 0,24.0181 0,24.0181 24.0181,0 24.0181,0 -0.2681,-23.75 z m 49.2319,-0.2681 0,-24.0181 -23.75,0.2681 -23.75,0.2681 -0.2681,23.75 -0.2681,23.75 24.0181,0 24.0181,0 0,-24.0181 z m 51,0.0181 0,-24 -24.5,0 -24.5,0 0,24 0,24 24.5,0 24.5,0 0,-24 z m 49.7681,0.25 -0.2681,-23.75 -23.75,-0.2681 -23.75,-0.2681 0,24.0181 0,24.0181 24.0181,0 24.0181,0 -0.2681,-23.75 z m -149.7681,-49.25 0,-24 -24,0 -24,0 0,24 0,24 24,0 24,0 0,-24 z m 49,0 0,-24 -24,0 -24,0 0,24 0,24 24,0 24,0 0,-24 z m 51,0 0,-24 -24.5,0 -24.5,0 0,24 0,24 24.5,0 24.5,0 0,-24 z m 50,0 0,-24 -24,0 -24,0 0,24 0,24 24,0 24,0 0,-24 z"
       id="path2830-7" />
    <text
       xml:space="preserve"
       style="font-size:48px;font-style:normal;font-variant:normal;font-weight:bold;font-stretch:normal;text-align:start;line-height:125%;writing-mode:lr-tb;text-anchor:start;fill:#008080;fill-opacity:1;stroke:none;font-family:Aharoni;-inkscape-font-specification:Aharoni Bold"
       x="1374.3761"
       y="410.45786"
       id="text3631"
       sodipodi:linespacing="125%"><tspan
         sodipodi:role="line"
         x="1374.3761"
         y="410.45786"
         id="tspan3635"
         style="font-size:72px;fill:#008080">CHIH-HSIANG HO</tspan></text>
    <path
       style="fill:#008080;fill-opacity:0.26063831"
       d="m 1828.8675,499.49952 0,-12 -11.5,0 c -7,0 -11.5,-0.3913 -11.5,-1 0,-0.6087 4.5,-1 11.5,-1 l 11.5,0 0,-24.5 0,-24.5 -11.5,0 c -7,0 -11.5,-0.3913 -11.5,-1 0,-0.6087 4.5,-1 11.5,-1 l 11.5,0 0,-24 0,-24 -11.75,-0.21503 -11.75,-0.21503 11.75,-0.31671 11.75,-0.3167 0,-23.96827 0,-23.96826 -11.5,0 c -7,0 -11.5,-0.3913 -11.5,-1 0,-0.6087 4.5,-1 11.5,-1 l 11.5,0 0,-12 c 0,-7.33333 0.3888,-12 1,-12 0.6111,0 1,4.66667 1,12 l 0,12 23.9999,0 24,0 0.2163,-12.25 0.2162,-12.25 0.3145,12.25 0.3146,12.25 23.9692,0 23.9692,0 0,-12 c 0,-7.33333 0.3889,-12 1,-12 0.6112,0 1,4.66667 1,12 l 0,12 24.5,0 24.5,0 0,-12 c 0,-7.33333 0.3889,-12 1,-12 0.6112,0 1,4.66667 1,12 l 0,12 23.9693,0 23.9692,0 0.3145,-12.25 0.3146,-12.25 0.2162,12.25 0.2162,12.25 12,0 c 7.3334,0 12.0001,0.38889 12.0001,1 0,0.61119 -4.6728,1 -12.0182,1 l -12.0181,0 0.2681,23.75 0.2681,23.75 12,0.5319 12.0001,0.53191 -12.0001,0.46809 -12,0.4681 -0.2681,23.75 -0.2681,23.75 12.0181,0 c 7.3454,0 12.0182,0.38881 12.0182,1 0,0.61111 -4.6667,1 -12.0001,1 l -12,0 0,24.5 0,24.5 12,0 c 7.3334,0 12.0001,0.38889 12.0001,1 0,0.61097 -4.6565,1 -11.9693,1 l -11.9692,0 -0.3146,12.25 -0.3145,12.25 -0.2162,-12.25 -0.2163,-12.25 -24,0 -24,0 0,12 c 0,7.33333 -0.3888,12 -1,12 -0.6111,0 -1,-4.66667 -1,-12 l 0,-12 -24.5,0 -24.5,0 0,12 c 0,7.33333 -0.3888,12 -1,12 -0.6111,0 -1,-4.66667 -1,-12 l 0,-12 -24,0 -24,0 -0.2162,12.25 -0.2162,12.25 -0.3146,-12.25 -0.3145,-12.25 -23.9692,0 -23.9692,0 0,12 c 0,7.33333 -0.3889,12 -1,12 -0.6112,0 -1,-4.66667 -1,-12 z m 49.9999,-38.5 0,-24.5 -24,0 -23.9999,0 0,24.5 0,24.5 23.9999,0 24,0 0,-24.5 z m 49,0 0,-24.5 -24,0 -24,0 0,24.5 0,24.5 24,0 24,0 0,-24.5 z m 51,0 0,-24.5 -24.5,0 -24.5,0 0,24.5 0,24.5 24.5,0 24.5,0 0,-24.5 z m 50,0 0,-24.5 -24,0 -24,0 0,24.5 0,24.5 24,0 24,0 0,-24.5 z m -150.2319,-50.25 -0.2681,-23.75 -23.5,0 -23.4999,0 -0.2681,23.75 -0.2681,23.75 24.0361,0 24.0362,0 -0.2681,-23.75 z m 49.2319,-0.2681 0,-24.0181 -23.75,0.2681 -23.75,0.2681 -0.2681,23.75 -0.2681,23.75 24.0181,0 24.0181,0 0,-24.0181 z m 50.7681,0.2681 -0.2681,-23.75 -24.25,-0.26778 -24.25,-0.26778 0,24.01778 0,24.01778 24.5181,0 24.5181,0 -0.2681,-23.75 z m 50,0 -0.2681,-23.75 -23.75,-0.2681 -23.75,-0.2681 0,24.0181 0,24.0181 24.0181,0 24.0181,0 -0.2681,-23.75 z m -150,-49.5 0.2681,-23.75 -24.0181,0 -24.018,0 0,24.0181 0,24.0181 23.7499,-0.2681 23.75,-0.2681 0.2681,-23.75 z m 49.2319,0.25 0,-24 -24,0 -24,0 0,23.33333 c 0,12.83334 0.3,23.63334 0.6667,24 0.3667,0.36667 11.1667,0.66667 24,0.66667 l 23.3333,0 0,-24 z m 51,0 0,-24 -24.5,0 -24.5,0 0,24 0,24 24.5,0 24.5,0 0,-24 z m 49.7681,-0.25 0.2681,-23.75 -24.0181,0 -24.0181,0 0,24.0181 0,24.0181 23.75,-0.2681 23.75,-0.2681 0.2681,-23.75 z"
       id="path2832-4" />
    <path
       style="fill:#008080;fill-opacity:0.26063831"
       d="m 1852.4389,474.49953 0,-12 -11.5,0 c -7,0 -11.5,-0.3913 -11.5,-1 0,-0.6087 4.5,-1 11.5,-1 l 11.5,0 0,-24.5 0,-24.5 -11.5,0 c -7,0 -11.5,-0.3913 -11.5,-1 0,-0.6087 4.5,-1 11.5,-1 l 11.5,0 0,-24 0,-24 -11.75,-0.21503 -11.75,-0.21503 11.75,-0.31671 11.75,-0.3167 0,-23.96827 0,-23.96826 -11.5,0 c -7,0 -11.5,-0.3913 -11.5,-1 0,-0.6087 4.5,-1 11.5,-1 l 11.5,0 0,-12 c 0,-7.33333 0.3889,-12 1,-12 0.6111,0 1,4.66667 1,12 l 0,12 24,0 24,0 0.2162,-12.25 0.2162,-12.25 0.3146,12.25 0.3145,12.25 23.9693,0 23.9692,0 0,-12 c 0,-7.33333 0.3889,-12 1,-12 0.6111,0 1,4.66667 1,12 l 0,12 24.5,0 24.5,0 0,-12 c 0,-7.33333 0.3889,-12 1,-12 0.6111,0 1,4.66667 1,12 l 0,12 23.9692,0 23.9692,0 0.3146,-12.25 0.3145,-12.25 0.2163,12.25 0.2162,12.25 12,0 c 7.3333,0 12,0.38889 12,1 0,0.61119 -4.6727,1 -12.0181,1 l -12.0181,0 0.2681,23.75 0.2681,23.75 12,0.5319 12,0.53191 -12,0.46809 -12,0.4681 -0.2681,23.75 -0.2681,23.75 12.0181,0 c 7.3454,0 12.0181,0.38881 12.0181,1 0,0.61111 -4.6667,1 -12,1 l -12,0 0,24.5 0,24.5 12,0 c 7.3333,0 12,0.38889 12,1 0,0.61097 -4.6564,1 -11.9692,1 l -11.9693,0 -0.3145,12.25 -0.3146,12.25 -0.2162,-12.25 -0.2162,-12.25 -24,0 -24,0 0,12 c 0,7.33333 -0.3889,12 -1,12 -0.6111,0 -1,-4.66667 -1,-12 l 0,-12 -24.5,0 -24.5,0 0,12 c 0,7.33333 -0.3889,12 -1,12 -0.6111,0 -1,-4.66667 -1,-12 l 0,-12 -24,0 -24,0 -0.2162,12.25 -0.2163,12.25 -0.3145,-12.25 -0.3146,-12.25 -23.9692,0 -23.9692,0 0,12 c 0,7.33333 -0.3889,12 -1,12 -0.6111,0 -1,-4.66667 -1,-12 z m 50,-38.5 0,-24.5 -24,0 -24,0 0,24.5 0,24.5 24,0 24,0 0,-24.5 z m 49,0 0,-24.5 -24,0 -24,0 0,24.5 0,24.5 24,0 24,0 0,-24.5 z m 51,0 0,-24.5 -24.5,0 -24.5,0 0,24.5 0,24.5 24.5,0 24.5,0 0,-24.5 z m 50,0 0,-24.5 -24,0 -24,0 0,24.5 0,24.5 24,0 24,0 0,-24.5 z m -150.2319,-50.25 -0.2681,-23.75 -23.5,0 -23.5,0 -0.2681,23.75 -0.2681,23.75 24.0362,0 24.0362,0 -0.2681,-23.75 z m 49.2319,-0.2681 0,-24.0181 -23.75,0.2681 -23.75,0.2681 -0.2681,23.75 -0.2681,23.75 24.0181,0 24.0181,0 0,-24.0181 z m 50.7681,0.2681 -0.2681,-23.75 -24.25,-0.26778 -24.25,-0.26778 0,24.01778 0,24.01778 24.5181,0 24.5181,0 -0.2681,-23.75 z m 50,0 -0.2681,-23.75 -23.75,-0.2681 -23.75,-0.2681 0,24.0181 0,24.0181 24.0181,0 24.0181,0 -0.2681,-23.75 z m -150,-49.5 0.2681,-23.75 -24.0181,0 -24.0181,0 0,24.0181 0,24.0181 23.75,-0.2681 23.75,-0.2681 0.2681,-23.75 z m 49.2319,0.25 0,-24 -24,0 -24,0 0,23.33333 c 0,12.83334 0.3,23.63334 0.6666,24 0.3667,0.36667 11.1667,0.66667 24,0.66667 l 23.3334,0 0,-24 z m 51,0 0,-24 -24.5,0 -24.5,0 0,24 0,24 24.5,0 24.5,0 0,-24 z m 49.7681,-0.25 0.2681,-23.75 -24.0181,0 -24.0181,0 0,24.0181 0,24.0181 23.75,-0.2681 23.75,-0.2681 0.2681,-23.75 z"
       id="path2832-1-0" />
    <text
       xml:space="preserve"
       style="font-size:33.40241623px;font-style:normal;font-weight:normal;fill:#000000;fill-opacity:1;stroke:none;font-family:Bitstream Vera Sans"
       x="1546.9681"
       y="456.56262"
       id="text3664"><tspan
         sodipodi:role="line"
         id="tspan3666"
         x="1546.9681"
         y="456.56262"
         style="font-size:40.082901px;fill:#008080;fill-opacity:0.70212761">Professor of Mathematics</tspan></text>
    <path
       style="fill:none;stroke:#008080;stroke-width:11.50500011;stroke-linecap:butt;stroke-linejoin:miter;stroke-miterlimit:4;stroke-opacity:1;stroke-dasharray:none"
       d="m 1314.775,1198.121 0.515,-905.59174"
       id="path3668-4" />
    <path
       style="fill:none;stroke:#008080;stroke-width:11.50500011;stroke-linecap:butt;stroke-linejoin:miter;stroke-miterlimit:4;stroke-opacity:1;stroke-dasharray:none"
       d="m 2080.9856,1194.1209 -0.515,-905.59164"
       id="path3668-5" />
    <path
       style="fill:none;stroke:#008080;stroke-width:11.5700922;stroke-linecap:butt;stroke-linejoin:miter;stroke-miterlimit:4;stroke-opacity:1;stroke-dasharray:none"
       d="M 1092.951,509.72997 2141.3347,509.2801"
       id="path3668" />
    <text
       xml:space="preserve"
       style="font-size:33.76925278px;font-style:normal;font-weight:normal;fill:#008080;fill-opacity:1;stroke:none;font-family:Bitstream Vera Sans"
       x="2001.3528"
       y="541.38782"
       id="text3743"
       transform="scale(1.0025401,0.99746633)"><tspan
         sodipodi:role="line"
         x="2001.3528"
         y="541.38782"
         style="font-size:24px;font-weight:bold;text-align:end;text-anchor:end;fill:#008080;font-family:Calibri;-inkscape-font-specification:Calibri Bold"
         id="tspan3833">HOME    BACKGROUND    PUBLICATIONS    RESEARCH    SERVICE</tspan></text>
    <path
       style="fill:none;stroke:#008080;stroke-width:10.34620476;stroke-linecap:butt;stroke-linejoin:miter;stroke-miterlimit:4;stroke-opacity:1;stroke-dasharray:none"
       d="m 1095.1963,290.91334 225.3217,-1.67375"
       id="path3668-7" />
    <path
       style="fill:none;stroke:#008080;stroke-width:10.37742996;stroke-linecap:butt;stroke-linejoin:miter;stroke-miterlimit:4;stroke-opacity:1;stroke-dasharray:none"
       d="m 1090.6072,515.7219 1.6426,-231.00508"
       id="path3668-4-1" />
    <path
       style="fill:none;stroke:#008080;stroke-width:11.57407665;stroke-linecap:butt;stroke-linejoin:miter;stroke-miterlimit:4;stroke-opacity:1;stroke-dasharray:none"
       d="m 1084.0746,553.56977 1058.4812,-0.44589"
       id="path3668-1" />
    <text
       xml:space="preserve"
       style="font-size:40px;font-style:normal;font-weight:normal;text-align:start;line-height:129.99999523%;writing-mode:lr-tb;text-anchor:start;fill:#008080;fill-opacity:1;stroke:none;font-family:Bitstream Vera Sans"
       x="1078.5978"
       y="590.05896"
       id="text3867"
       sodipodi:linespacing="130%"><tspan
         sodipodi:role="line"
         x="1078.5978"
         y="590.05896"
         style="font-size:20px;font-style:normal;font-variant:normal;font-weight:bold;font-stretch:normal;text-align:start;line-height:129.99999523%;writing-mode:lr-tb;text-anchor:start;fill:#008080;fill-opacity:1;font-family:Calibri;-inkscape-font-specification:Calibri Bold"
         id="tspan3911">Department of </tspan><tspan
         sodipodi:role="line"
         x="1078.5978"
         y="616.05896"
         style="font-size:20px;font-style:normal;font-variant:normal;font-weight:bold;font-stretch:normal;text-align:start;line-height:129.99999523%;writing-mode:lr-tb;text-anchor:start;fill:#008080;fill-opacity:1;font-family:Calibri;-inkscape-font-specification:Calibri Bold"
         id="tspan3915">     Mathematical Sciences</tspan><tspan
         sodipodi:role="line"
         x="1078.5978"
         y="642.05896"
         id="tspan3873"
         style="font-size:20px;font-style:normal;font-variant:normal;font-weight:bold;font-stretch:normal;text-align:start;line-height:129.99999523%;writing-mode:lr-tb;text-anchor:start;fill:#008080;fill-opacity:1;font-family:Calibri;-inkscape-font-specification:Calibri Bold">University of Nevada, </tspan><tspan
         sodipodi:role="line"
         x="1078.5978"
         y="668.05896"
         style="font-size:20px;font-style:normal;font-variant:normal;font-weight:bold;font-stretch:normal;text-align:start;line-height:129.99999523%;writing-mode:lr-tb;text-anchor:start;fill:#008080;fill-opacity:1;font-family:Calibri;-inkscape-font-specification:Calibri Bold"
         id="tspan3917">     Las Vegas</tspan><tspan
         sodipodi:role="line"
         x="1078.5978"
         y="694.05896"
         id="tspan3877"
         style="font-size:20px;font-style:normal;font-variant:normal;font-weight:bold;font-stretch:normal;text-align:start;line-height:129.99999523%;writing-mode:lr-tb;text-anchor:start;fill:#008080;fill-opacity:1;font-family:Calibri;-inkscape-font-specification:Calibri Bold">Las Vegas, NV 89154-4020</tspan><tspan
         sodipodi:role="line"
         x="1078.5978"
         y="720.05896"
         style="font-size:20px;font-style:normal;font-variant:normal;font-weight:bold;font-stretch:normal;text-align:start;line-height:129.99999523%;writing-mode:lr-tb;text-anchor:start;fill:#008080;fill-opacity:1;font-family:Calibri;-inkscape-font-specification:Calibri Bold"
         id="tspan3921" /><tspan
         sodipodi:role="line"
         x="1078.5978"
         y="746.05896"
         id="tspan3881"
         style="font-size:20px;font-style:normal;font-variant:normal;font-weight:bold;font-stretch:normal;text-align:start;line-height:129.99999523%;writing-mode:lr-tb;text-anchor:start;fill:#008080;fill-opacity:1;font-family:Calibri;-inkscape-font-specification:Calibri Bold">Tel: (702) 895-0396</tspan><tspan
         sodipodi:role="line"
         x="1078.5978"
         y="772.05896"
         id="tspan3885"
         style="font-size:20px;font-style:normal;font-variant:normal;font-weight:bold;font-stretch:normal;text-align:start;line-height:129.99999523%;writing-mode:lr-tb;text-anchor:start;fill:#008080;fill-opacity:1;font-family:Calibri;-inkscape-font-specification:Calibri Bold">Fax: (702) 895-4343</tspan><tspan
         sodipodi:role="line"
         x="1078.5978"
         y="798.05896"
         style="font-size:20px;font-style:normal;font-variant:normal;font-weight:bold;font-stretch:normal;text-align:start;line-height:129.99999523%;writing-mode:lr-tb;text-anchor:start;fill:#008080;fill-opacity:1;font-family:Calibri;-inkscape-font-specification:Calibri Bold"
         id="tspan3919" /><tspan
         sodipodi:role="line"
         x="1078.5978"
         y="824.05896"
         id="tspan3889"
         style="font-size:20px;font-style:normal;font-variant:normal;font-weight:bold;font-stretch:normal;text-align:start;line-height:129.99999523%;writing-mode:lr-tb;text-anchor:start;fill:#008080;fill-opacity:1;font-family:Calibri;-inkscape-font-specification:Calibri Bold">chih-hsiang.ho@unlv.edu</tspan></text>
    <flowRoot
       xml:space="preserve"
       id="flowRoot3891"
       style="fill:black;stroke:none;stroke-opacity:1;stroke-width:1px;stroke-linejoin:miter;stroke-linecap:butt;fill-opacity:1;font-family:Bitstream Vera Sans;font-style:normal;font-weight:normal;font-size:40px"><flowRegion
         id="flowRegion3893"><rect
           id="rect3895"
           width="80.812202"
           height="78.791901"
           x="1614.2238"
           y="1009.9358" /></flowRegion><flowPara
         id="flowPara3897"></flowPara></flowRoot>  </g>
</svg>
